<?xml version="1.0" encoding="utf-8"?>
<!-- Generator: Adobe Illustrator 21.0.0, SVG Export Plug-In . SVG Version: 6.00 Build 0)  -->
<svg version="1.1" id="Capa_1" xmlns="http://www.w3.org/2000/svg" xmlns:xlink="http://www.w3.org/1999/xlink" x="0px" y="0px"
	 viewBox="0 0 48 48" style="enable-background:new 0 0 48 48;" xml:space="preserve">
<style type="text/css">
	.st0{fill:#FFFFFF;}
</style>
<g>
	<g id="Search_1_">
		<g>
			<path class="st0" d="M46.9,41.7L38.3,33c2.4-3.4,3.8-7.5,3.8-12C42,9.4,32.6,0,21,0S0,9.4,0,21s9.4,21,21,21
				c4.5,0,8.6-1.4,12-3.8l8.7,8.7c1.4,1.4,3.8,1.4,5.2,0C48.4,45.5,48.4,43.1,46.9,41.7z M21,37.5c-9.1,0-16.4-7.4-16.4-16.4
				S11.9,4.6,21,4.6S37.4,11.9,37.4,21S30.1,37.5,21,37.5z"/>
		</g>
	</g>
</g>
</svg>
