<?xml version="1.0" encoding="utf-8"?>
<!-- Generator: Adobe Illustrator 21.0.0, SVG Export Plug-In . SVG Version: 6.00 Build 0)  -->
<svg version="1.1" id="Capa_1" xmlns="http://www.w3.org/2000/svg" xmlns:xlink="http://www.w3.org/1999/xlink" x="0px" y="0px"
	 viewBox="0 0 48 48" style="enable-background:new 0 0 48 48;" xml:space="preserve">
<style type="text/css">
	.st0{fill:#FFFFFF;}
</style>
<g>
	<path class="st0" d="M23.8,0C10.7,0,0,10.7,0,23.8s10.7,23.8,23.8,23.8s23.8-10.7,23.8-23.8S36.9,0,23.8,0z M23.8,43.3
		c-10.7,0-19.5-8.7-19.5-19.5C4.3,13.1,13,4.3,23.8,4.3S43.3,13,43.3,23.8S34.5,43.3,23.8,43.3z"/>
	<path class="st0" d="M23.8,10.1c-1.6,0-2.9,1.3-2.9,2.9c0,1.6,1.3,2.9,2.9,2.9c1.6,0,2.9-1.3,2.9-2.9
		C26.7,11.4,25.4,10.1,23.8,10.1z"/>
	<path class="st0" d="M23.8,20.2c-1.2,0-2.2,1-2.2,2.2v13c0,1.2,1,2.2,2.2,2.2c1.2,0,2.2-1,2.2-2.2v-13C25.9,21.2,25,20.2,23.8,20.2
		z"/>
</g>
</svg>
