<?xml version="1.0" encoding="utf-8"?>
<!-- Generator: Adobe Illustrator 21.0.0, SVG Export Plug-In . SVG Version: 6.00 Build 0)  -->
<svg version="1.1" id="Capa_1" xmlns="http://www.w3.org/2000/svg" xmlns:xlink="http://www.w3.org/1999/xlink" x="0px" y="0px"
	 viewBox="0 0 48 48" style="enable-background:new 0 0 48 48;" xml:space="preserve">
<style type="text/css">
	.st0{fill:#FFFFFF;}
</style>
<g>
	<g>
		<path class="st0" d="M16.1,16.3c-1.5,0-2.8,1.3-2.8,2.8c0,1.6,1.3,2.8,2.8,2.8c1.6,0,2.8-1.3,2.8-2.8
			C18.9,17.5,17.6,16.3,16.1,16.3z"/>
	</g>
	<g>
		<path class="st0" d="M24,10.4c-2.2-0.2-4.6-0.9-7.7-2.3L16.2,8H16C7.3,8,1,23.4,1,33.8c0,2.5,0.4,4.5,1.1,5.9
			c0.9,1.7,2.2,2.7,3.9,2.7c3.9,0,6.2-2.3,8.5-4.5c2.6-2.5,5.4-5.1,10.7-5.1c4.4,0,7.8,2.7,11,5.3c2.7,2.2,5.3,4.2,8.1,4.2
			c1.6,0,2.8-0.8,3.6-2.3c0.6-1.2,1-2.9,1-5.1c0-9.1-6.7-26.8-14.8-26.8h-0.2l-0.2,0.1c-3.1,1.5-5.6,2.2-8.1,2.3 M16.1,23.6
			c-2.5,0-4.5-2-4.5-4.5s2-4.5,4.5-4.5s4.5,2,4.5,4.5S18.5,23.6,16.1,23.6z M33.8,12.6c1-0.6,2.3-0.3,2.9,0.6c0.3,0.5,0.4,1,0.3,1.6
			c-0.1,0.5-0.5,1-0.9,1.3c-0.3,0.2-0.7,0.3-1.1,0.3c-0.7,0-1.4-0.4-1.8-1C32.6,14.5,32.9,13.2,33.8,12.6z M29.6,19.3
			c-0.6-1-0.3-2.3,0.6-2.9c1-0.6,2.3-0.3,2.9,0.6c0.3,0.5,0.4,1,0.3,1.6c-0.1,0.5-0.5,1-0.9,1.3c-0.3,0.2-0.7,0.3-1.1,0.3
			C30.6,20.3,30,19.9,29.6,19.3z M35.3,24.3c-0.3,0.2-0.7,0.3-1.1,0.3c-0.7,0-1.4-0.4-1.8-1c-0.3-0.5-0.4-1-0.3-1.6
			c0.1-0.5,0.5-1,0.9-1.3c1-0.6,2.3-0.3,2.9,0.6C36.5,22.4,36.2,23.7,35.3,24.3z M39.8,19.2c-0.1,0.5-0.5,1-0.9,1.3
			c-0.3,0.2-0.7,0.3-1.1,0.3c-0.7,0-1.4-0.4-1.8-1c-0.3-0.5-0.4-1-0.3-1.6c0.1-0.5,0.5-1,0.9-1.3c1-0.6,2.3-0.3,2.9,0.6
			C39.8,18.1,39.9,18.7,39.8,19.2z"/>
	</g>
</g>
</svg>
