<?xml version="1.0" encoding="utf-8"?>
<!-- Generator: Adobe Illustrator 21.0.0, SVG Export Plug-In . SVG Version: 6.00 Build 0)  -->
<svg version="1.1" id="Capa_1" xmlns="http://www.w3.org/2000/svg" xmlns:xlink="http://www.w3.org/1999/xlink" x="0px" y="0px"
	 viewBox="0 0 48 48" style="enable-background:new 0 0 48 48;" xml:space="preserve">
<style type="text/css">
	.st0{fill:#FFFFFF;}
</style>
<g>
	<path class="st0" d="M41.9,13.3L24.3,28.8L6.8,13.3c-0.7-0.6-1.8-0.5-2.4,0.1c-0.6,0.7-0.6,1.8,0.1,2.4l18.7,16.5
		c0.3,0.3,0.7,0.4,1.1,0.4c0.4,0,0.8-0.1,1.1-0.4l18.7-16.5c0.7-0.6,0.8-1.7,0.1-2.4C43.7,12.8,42.6,12.7,41.9,13.3z"/>
	<path class="st0" d="M42.8,10.9H6.3c-2.3,0-4.2,1.9-4.2,4.2v22.2c0,2.3,1.9,4.2,4.2,4.2h36.5c2.3,0,4.2-1.9,4.2-4.2V15.1
		C47,12.8,45.1,10.9,42.8,10.9z M44.2,37.3c0,0.8-0.6,1.4-1.4,1.4H6.3c-0.8,0-1.4-0.6-1.4-1.4V15.1c0-0.8,0.6-1.4,1.4-1.4h36.5
		c0.8,0,1.4,0.6,1.4,1.4V37.3z"/>
</g>
</svg>
