<?xml version="1.0" encoding="utf-8"?>
<!-- Generator: Adobe Illustrator 21.0.0, SVG Export Plug-In . SVG Version: 6.00 Build 0)  -->
<svg version="1.1" id="Capa_1" xmlns="http://www.w3.org/2000/svg" xmlns:xlink="http://www.w3.org/1999/xlink" x="0px" y="0px"
	 viewBox="0 0 333.8 333.8" style="enable-background:new 0 0 333.8 333.8;" xml:space="preserve">
<g>
	<g>
		<path d="M117,108.8c-9.6,0-17.6,7.9-17.6,17.6s7.9,17.6,17.6,17.6s17.6-7.8,17.6-17.6C134.4,116.8,126.6,108.8,117,108.8z"/>
	</g>
	<g>
		<path d="M166.2,72.2c-13.8-1.2-28.5-5.7-47.8-14.3l-1-0.5h-1.1C62.1,57.4,23,153.1,23,217.7c0,15.5,2.3,27.9,6.7,36.9
			c5.4,10.8,13.8,16.6,24.3,16.6c24,0,38.8-14,53-27.7c16.3-15.6,33.3-31.8,66.5-31.8c27.3,0,48.4,16.7,68.6,32.7
			c16.9,13.4,32.9,26.1,50.6,26.1c9.8,0,17.4-4.9,22.2-14.1c4-7.7,6.1-18.3,6.1-31.6c0-56.4-41.6-167-91.9-167h-1.2l-1.1,0.5
			c-19.1,9.5-34.7,13.9-50.2,14.3 M117,154.2c-15.4,0-27.9-12.4-27.9-27.8s12.6-27.8,27.9-27.8s27.8,12.4,27.8,27.8
			S132.2,154.2,117,154.2z M227.3,86.2c6-3.8,14.4-1.8,18.2,4c1.8,2.9,2.4,6.5,1.7,9.9c-0.7,3.4-2.8,6.3-5.7,8.3
			c-2.1,1.3-4.5,2.1-7.1,2.1c-4.5,0-8.7-2.3-11.1-6.1C219.4,98.1,221.2,89.9,227.3,86.2z M200.8,127.7c-3.9-6.1-2.1-14.3,4-18.2
			c6-3.8,14.4-2,18.2,4c1.8,2.9,2.6,6.5,1.7,9.9c-0.7,3.4-2.8,6.3-5.7,8.2c-2.1,1.3-4.5,2.1-7.1,2.1
			C207.4,133.7,203.3,131.5,200.8,127.7z M236.2,158.9c-2.1,1.3-4.5,2.1-7.1,2.1c-4.5,0-8.7-2.3-11.1-6.1c-1.8-2.9-2.6-6.5-1.7-9.9
			c0.7-3.4,2.8-6.3,5.7-8.2c6-3.8,14.4-2,18.2,4C244.1,147,242.3,155.2,236.2,158.9z M264.3,127.2c-0.7,3.4-2.8,6.3-5.7,8.2
			c-2.1,1.3-4.5,2.1-7.1,2.1c-4.5,0-8.7-2.3-11.1-6.1c-1.8-2.9-2.6-6.5-1.7-9.9c0.7-3.4,2.8-6.3,5.7-8.3c6-3.8,14.3-1.8,18,4
			C264.4,120.4,265.1,123.8,264.3,127.2z"/>
	</g>
</g>
</svg>
