<?xml version="1.0" encoding="utf-8"?>
<!-- Generator: Adobe Illustrator 21.0.0, SVG Export Plug-In . SVG Version: 6.00 Build 0)  -->
<svg version="1.1" id="Capa_1" xmlns="http://www.w3.org/2000/svg" xmlns:xlink="http://www.w3.org/1999/xlink" x="0px" y="0px"
	 viewBox="0 0 330 330" style="enable-background:new 0 0 330 330;" xml:space="preserve">
<g>
	<path d="M164,19.9c-80.5,0-146,65.5-146,146s65.5,146,146,146s146-65.5,146-146S244.5,19.9,164,19.9z M164,285.4
		c-65.8,0-119.5-53.6-119.5-119.5c0-65.8,53.6-119.5,119.5-119.5S283.5,100,283.5,165.9S229.9,285.4,164,285.4z"/>
	<path d="M164,81.9c-9.7,0-17.7,8-17.7,17.7c0,9.7,8,17.7,17.7,17.7s17.7-8,17.7-17.7C181.8,89.8,173.8,81.9,164,81.9z"/>
	<path d="M164,143.8c-7.3,0-13.2,6-13.2,13.2v79.6c0,7.3,6,13.2,13.2,13.2s13.2-6,13.2-13.2v-79.6
		C177.2,149.8,171.4,143.8,164,143.8z"/>
</g>
</svg>
