<?xml version="1.0" encoding="utf-8"?>
<!-- Generator: Adobe Illustrator 21.0.0, SVG Export Plug-In . SVG Version: 6.00 Build 0)  -->
<svg version="1.1" id="Capa_1" xmlns="http://www.w3.org/2000/svg" xmlns:xlink="http://www.w3.org/1999/xlink" x="0px" y="0px"
	 viewBox="0 0 273 243" style="enable-background:new 0 0 273 243;" xml:space="preserve">
<g>
	<path d="M232.9,57l-94.4,83.2L44.1,57c-3.8-3.3-9.5-2.9-12.8,0.8c-3.3,3.8-3,9.5,0.8,12.8l100.4,88.5c1.7,1.5,3.9,2.3,6,2.3
		s4.3-0.8,6-2.3l100.4-88.5c3.8-3.3,4.1-9,0.8-12.8C242.4,54.1,236.7,53.7,232.9,57z"/>
	<path d="M237.6,44.2H41.5C29.1,44.2,19,54.3,19,66.7v119c0,12.4,10.1,22.5,22.5,22.5h196.1c12.4,0,22.5-10.1,22.5-22.5v-119
		C260.1,54.3,250,44.2,237.6,44.2z M245.1,185.7c0,4.1-3.4,7.5-7.5,7.5H41.5c-4.1,0-7.5-3.4-7.5-7.5v-119c0-4.1,3.4-7.5,7.5-7.5
		h196.1c4.1,0,7.5,3.4,7.5,7.5V185.7z"/>
</g>
</svg>
