<?xml version="1.0" encoding="utf-8"?>
<!-- Generator: Adobe Illustrator 21.0.0, SVG Export Plug-In . SVG Version: 6.00 Build 0)  -->
<svg version="1.1" id="Capa_1" xmlns="http://www.w3.org/2000/svg" xmlns:xlink="http://www.w3.org/1999/xlink" x="0px" y="0px"
	 viewBox="0 0 612 612" style="enable-background:new 0 0 612 612;" xml:space="preserve">
<g>
	<g id="Search_1_">
		<g>
			<path d="M574.7,514.6L473,413c28-40.1,44.2-88.4,44.2-140.8C517.2,136.2,407.1,26,271,26S24.8,136.2,24.8,272.2
				S134.9,518.5,271,518.5c52.4,0,100.7-16.5,140.8-44.2l101.6,101.6c16.8,16.8,44.2,16.8,61.3,0
				C591.4,558.8,591.4,531.4,574.7,514.6z M271,464.9c-106.3,0-192.6-86.3-192.6-192.6S164.7,79.6,271,79.6s192.6,86.3,192.6,192.6
				S377.3,464.9,271,464.9z"/>
		</g>
	</g>
</g>
</svg>
